<svg width="10" height="12" viewBox="0 0 10 12" fill="none" xmlns="http://www.w3.org/2000/svg">
<path d="M1.90625 4.5V3.46875C1.90625 1.77148 3.28125 0.375 5 0.375C6.69727 0.375 8.09375 1.77148 8.09375 3.46875V4.5H8.4375C9.18945 4.5 9.8125 5.12305 9.8125 5.875V10C9.8125 10.7734 9.18945 11.375 8.4375 11.375H1.5625C0.789062 11.375 0.1875 10.7734 0.1875 10V5.875C0.1875 5.12305 0.789062 4.5 1.5625 4.5H1.90625ZM3.28125 4.5H6.71875V3.46875C6.71875 2.52344 5.94531 1.75 5 1.75C4.0332 1.75 3.28125 2.52344 3.28125 3.46875V4.5Z" fill="#212439"/>
</svg>
