<svg width="49" height="48" viewBox="0 0 49 48" fill="none" xmlns="http://www.w3.org/2000/svg">
<g filter="url(#filter0_b_107_640)">
<rect x="0.174194" width="48" height="48" rx="24" fill="#F3F4F5" fill-opacity="0.8"/>
<path d="M29.0082 14.6641C27.9828 15.5918 27.1039 16.5684 26.2738 17.5937C24.9554 15.7383 23.2953 13.8828 21.4398 12.125C16.6058 16.6172 13.2367 22.3789 13.2367 25.8945C13.2367 32.0957 18.1195 37.125 24.1742 37.125C30.1801 37.125 35.1117 32.0957 35.1117 25.8945C35.1117 23.3066 32.5726 17.9355 29.0082 14.6641ZM28.0804 31.2656C27.0062 31.998 25.6879 32.4375 24.2719 32.4375C20.7562 32.4375 17.9242 30.1426 17.9242 26.334C17.9242 24.4785 19.0961 22.8184 21.4398 19.9375C21.7816 20.3281 26.2738 26.0898 26.2738 26.0898L29.1547 22.8184C29.35 23.1602 29.5453 23.502 29.6918 23.7949C31.0101 26.334 30.473 29.6055 28.0804 31.2656Z" fill="#FF5C60"/>
</g>
<defs>
<filter id="filter0_b_107_640" x="-3.82581" y="-4" width="56" height="56" filterUnits="userSpaceOnUse" color-interpolation-filters="sRGB">
<feFlood flood-opacity="0" result="BackgroundImageFix"/>
<feGaussianBlur in="BackgroundImageFix" stdDeviation="2"/>
<feComposite in2="SourceAlpha" operator="in" result="effect1_backgroundBlur_107_640"/>
<feBlend mode="normal" in="SourceGraphic" in2="effect1_backgroundBlur_107_640" result="shape"/>
</filter>
</defs>
</svg>
