<svg width="49" height="48" viewBox="0 0 49 48" fill="none" xmlns="http://www.w3.org/2000/svg">
<g filter="url(#filter0_b_107_639)">
<rect x="0.174194" width="48" height="48" rx="24" fill="#F3F4F5" fill-opacity="0.8"/>
<path d="M17.9242 34V23.0625C17.9242 22.1836 17.1918 21.5 16.3617 21.5H13.2367C12.3578 21.5 11.6742 22.2324 11.6742 23.0625V33.9512C11.6742 34.7813 12.3578 35.4648 13.2367 35.4648H16.3617C17.1918 35.5625 17.9242 34.8789 17.9242 34ZM36.6742 23.1113C36.6742 21.793 35.6 20.7676 34.3304 20.7676H27.1527C28.2758 18.9121 28.8617 16.8125 28.8617 16.0801C28.8617 14.9082 27.934 13.6875 26.4203 13.6875C23.3441 13.6875 25.1508 17.4473 21.1469 20.6211L20.3656 21.2559C19.7797 21.7441 19.4867 22.3789 19.4867 23.0625C19.4867 23.1113 19.4867 23.0625 19.4867 23.0625V30.875C19.4867 31.6562 19.8285 32.3398 20.4144 32.7793L22.0746 34C23.4418 35.0254 25.0531 35.5625 26.7621 35.5625H29.6429C30.9125 35.5625 31.9867 34.5371 31.9867 33.2676C31.9867 33.0723 31.9379 32.877 31.889 32.7305C32.8656 32.4375 33.5492 31.5586 33.5492 30.4844C33.5492 30.0449 33.4027 29.6543 33.1586 29.3125C34.2816 29.0684 35.1117 28.1406 35.1117 27.0176C35.1117 26.3828 34.8676 25.8457 34.4769 25.4062C35.6976 25.3574 36.6742 24.332 36.6742 23.1113Z" fill="#0BF0C7"/>
</g>
<defs>
<filter id="filter0_b_107_639" x="-3.82581" y="-4" width="56" height="56" filterUnits="userSpaceOnUse" color-interpolation-filters="sRGB">
<feFlood flood-opacity="0" result="BackgroundImageFix"/>
<feGaussianBlur in="BackgroundImageFix" stdDeviation="2"/>
<feComposite in2="SourceAlpha" operator="in" result="effect1_backgroundBlur_107_639"/>
<feBlend mode="normal" in="SourceGraphic" in2="effect1_backgroundBlur_107_639" result="shape"/>
</filter>
</defs>
</svg>
