<svg width="54" height="53" viewBox="0 0 54 53" fill="none" xmlns="http://www.w3.org/2000/svg">
<rect x="0.174194" width="53" height="53" rx="16" fill="url(#paint0_linear_203_148)"/>
<path d="M21.0537 15.2013C20.2344 15.2013 19.4221 15.2412 18.6235 15.394C17.9558 15.5203 17.3293 15.753 16.9507 16.338C16.7923 16.584 16.6822 16.8831 16.634 17.169C16.455 18.2526 16.7855 19.1965 17.5496 20.0142C18.1004 20.5992 18.7406 21.0579 19.4841 21.3836C19.6837 21.47 19.8696 21.5697 20.0692 21.6628C20.3239 21.7825 20.4479 21.9952 20.3997 22.2677C20.3239 22.6533 20.2344 23.0389 20.0073 23.3779C19.6631 23.8898 19.1743 24.2222 18.596 24.4482C17.9214 24.7075 17.2673 24.7008 16.5927 24.4216C15.9456 24.1491 15.326 23.83 14.7615 23.4178C14.0387 22.886 13.4329 22.2478 12.9854 21.4767C12.3865 20.4596 12.1317 19.3561 12.1799 18.1927C12.2075 17.5412 12.3383 16.9097 12.5448 16.2915C12.7238 15.7596 12.9647 15.2677 13.2607 14.7891C13.956 13.6523 14.8992 12.7615 16.0695 12.0968C17.1572 11.4852 18.3206 11.1528 19.5667 11.1462C21.391 11.1329 23.2153 11.1329 25.0396 11.1462C26.0998 11.1528 27.16 11.206 28.2201 11.2392C29.2665 11.2725 30.3198 11.319 31.3662 11.3323C33.1974 11.3522 35.0286 11.3722 36.8529 11.3522C37.679 11.3389 38.512 11.2392 39.3381 11.1594C39.579 11.1395 39.8131 11.073 40.0472 11.0265C40.4671 10.9467 40.6736 11.0398 40.8526 11.4054C41.3414 12.3893 41.2588 13.3532 40.7012 14.2772C40.1573 15.1747 39.3243 15.7264 38.3468 16.0987C37.4794 16.4311 36.5707 16.5242 35.6551 16.584C34.5742 16.6571 33.5003 16.5906 32.4264 16.4643C32.0546 16.4178 31.9789 16.4976 31.9445 16.8565C31.8756 17.5146 31.7861 18.1728 31.7104 18.8375C31.6278 19.489 31.5521 20.1471 31.4763 20.7986C31.4557 20.9582 31.4557 21.1177 31.4213 21.2773C31.3869 21.4435 31.4557 21.49 31.614 21.5099C32.0546 21.5697 32.4952 21.5432 32.9358 21.5033C33.8652 21.4235 34.7463 21.1709 35.6206 20.885C35.9098 20.792 36.1989 20.6989 36.4949 20.6391C36.5982 20.6191 36.7428 20.6789 36.8323 20.7454C37.2866 21.0978 37.4794 21.5697 37.5 22.1215C37.5276 22.8395 37.3899 23.5109 36.9699 24.1158C36.6602 24.5679 36.2402 24.9069 35.7446 25.1595C34.8083 25.6315 33.7963 25.7977 32.7499 25.7977C32.3438 25.7977 31.9376 25.7777 31.5314 25.7645C31.2629 25.7578 31.2285 25.791 31.2079 26.0503C31.1734 26.4358 31.1459 26.8214 31.0977 27.207C30.9532 28.4634 30.8155 29.7132 30.6434 30.9696C30.4988 32.0598 30.2785 33.1434 29.9481 34.2003C29.7828 34.7255 29.6245 35.2507 29.4249 35.7626C29.1289 36.5404 28.7226 37.2649 28.2545 37.9563C27.6006 38.9202 26.802 39.7645 25.8451 40.4625C24.895 41.1472 23.8555 41.6657 22.6783 41.8851C21.9142 42.0247 21.1432 42.0513 20.3859 41.8851C19.2293 41.6192 18.2311 41.0807 17.5221 40.1235C17.1297 39.5917 16.8543 39.0066 16.6891 38.3685C16.4137 37.3115 16.4137 36.2545 16.6409 35.1909C16.8405 34.2602 17.1916 33.3827 17.6597 32.5384C18.1692 31.6211 18.7888 30.7835 19.4841 29.9924C20.1656 29.2146 20.9091 28.49 21.7214 27.8385C22.4374 27.2735 23.174 26.7283 23.9037 26.17C24.2135 25.9373 24.5233 25.7046 24.8262 25.4586C24.9846 25.3323 24.9776 25.3057 24.84 25.1595C24.6403 24.9468 24.4269 24.7473 24.2479 24.5147C23.8418 23.9895 23.6697 23.0389 24.0827 22.4339C24.3374 22.055 24.6954 21.7958 25.1291 21.6429C25.2393 21.603 25.3494 21.5764 25.4596 21.5498C25.7762 21.47 25.8795 21.3637 25.9139 21.0512C26.0103 20.1604 26.2099 19.2896 26.4853 18.4387C26.6987 17.7739 26.9603 17.1224 27.2013 16.471C27.2563 16.3181 27.332 16.1652 27.394 16.0123C27.4353 15.9059 27.4147 15.8328 27.277 15.8128C27.1049 15.7929 26.9396 15.7663 26.7676 15.7463C25.8795 15.6333 24.9983 15.5004 24.1102 15.414C23.0983 15.3076 22.0794 15.2412 21.0606 15.1547C21.0606 15.168 21.0537 15.1813 21.0537 15.2013ZM25.253 29.1947C25.2324 29.1814 25.2049 29.1747 25.1842 29.1614C24.9639 29.3608 24.7367 29.547 24.5302 29.7597C23.8004 30.5242 23.1327 31.3352 22.5269 32.1994C21.8867 33.1101 21.3153 34.0674 20.916 35.1045C20.7095 35.6363 20.5442 36.1814 20.5855 36.7531C20.6406 37.4577 20.9573 37.8898 21.7421 38.0959C22.0725 38.1824 22.3823 38.076 22.6508 37.8965C23.112 37.5907 23.3943 37.1386 23.6353 36.66C23.9313 36.0684 24.1653 35.4568 24.3168 34.8186C24.5302 33.9079 24.7436 32.9971 24.9019 32.0731C25.0465 31.2488 25.1153 30.4178 25.2186 29.5868C25.2393 29.4606 25.2462 29.3276 25.253 29.1947Z" fill="#F2F2F2"/>
<defs>
<linearGradient id="paint0_linear_203_148" x1="2.59086" y1="60.8519" x2="54.1143" y2="59.1343" gradientUnits="userSpaceOnUse">
<stop stop-color="#017DF8"/>
<stop offset="1" stop-color="#8A14F5"/>
</linearGradient>
</defs>
</svg>
