<svg width="23" height="16" viewBox="0 0 23 16" fill="none" xmlns="http://www.w3.org/2000/svg">
<path d="M8.85986 3.05026L8.53831 2.74135C7.65403 1.81461 6.3946 1.39336 5.18876 1.61802C3.33982 1.92694 2 3.61193 2 5.57775V5.71817C2 6.89766 2.45554 8.02099 3.25943 8.80731L8.85986 14.4078" stroke="#0BF0C7" stroke-width="2.53953"/>
<path d="M6.31494 5.32792V5.16331C6.31494 2.85878 7.88561 0.883461 10.0531 0.521319C11.4667 0.257944 12.9432 0.751773 13.9798 1.8382L14.3568 2.20034L14.7023 1.8382C15.739 0.751773 17.2154 0.257944 18.629 0.521319C20.7965 0.883461 22.3986 2.85878 22.3986 5.16331V5.32792C22.3986 6.71065 21.8332 8.02752 20.8908 8.94934L15.2049 14.5131C14.985 14.7436 14.6709 14.8424 14.3568 14.8424C14.0112 14.8424 13.6971 14.7436 13.4772 14.5131L7.79137 8.94934C6.84897 8.02752 6.31494 6.71065 6.31494 5.32792Z" fill="url(#paint0_linear_203_62)"/>
<defs>
<linearGradient id="paint0_linear_203_62" x1="-4.91884" y1="14.8424" x2="15.8744" y2="21.348" gradientUnits="userSpaceOnUse">
<stop stop-color="#017DF8"/>
<stop offset="1" stop-color="#8A14F5"/>
</linearGradient>
</defs>
</svg>
