<svg width="49" height="48" viewBox="0 0 49 48" fill="none" xmlns="http://www.w3.org/2000/svg">
<g filter="url(#filter0_b_107_638)">
<rect x="0.174194" width="48" height="48" rx="24" fill="#F3F4F5" fill-opacity="0.8"/>
<path d="M11.6742 21.4512V21.207C11.6742 17.7891 14.1156 14.8594 17.4847 14.3223C19.682 13.9316 21.9769 14.6641 23.5883 16.2754L24.1742 16.8125L24.7113 16.2754C26.3226 14.6641 28.6176 13.9316 30.8148 14.3223C34.184 14.8594 36.6742 17.7891 36.6742 21.207V21.4512C36.6742 23.502 35.7953 25.4551 34.3304 26.8223L25.4926 35.0742C25.1508 35.416 24.6625 35.5625 24.1742 35.5625C23.6371 35.5625 23.1488 35.416 22.807 35.0742L13.9691 26.8223C12.5043 25.4551 11.6742 23.502 11.6742 21.4512Z" fill="#1072F8"/>
</g>
<defs>
<filter id="filter0_b_107_638" x="-3.82581" y="-4" width="56" height="56" filterUnits="userSpaceOnUse" color-interpolation-filters="sRGB">
<feFlood flood-opacity="0" result="BackgroundImageFix"/>
<feGaussianBlur in="BackgroundImageFix" stdDeviation="2"/>
<feComposite in2="SourceAlpha" operator="in" result="effect1_backgroundBlur_107_638"/>
<feBlend mode="normal" in="SourceGraphic" in2="effect1_backgroundBlur_107_638" result="shape"/>
</filter>
</defs>
</svg>
